Coordinates
version=1
nRows=13
nColumns=36
inDegrees=yes

Units are S.I. units (second, meters, Newtons, ...)
If the header above contains a line with 'inDegrees', this indicates whether rotational values are in degrees (yes) or radians (no).

endheader
time	pelvis_tilt	pelvis_list	pelvis_rotation	pelvis_tx	pelvis_ty	pelvis_tz	hip_flexion_r	hip_adduction_r	hip_rotation_r	knee_angle_r	knee_angle_r_beta	ankle_angle_r	subtalar_angle_r	mtp_angle_r	hip_flexion_l	hip_adduction_l	hip_rotation_l	knee_angle_l	knee_angle_l_beta	ankle_angle_l	subtalar_angle_l	mtp_angle_l	lumbar_extension	lumbar_bending	lumbar_rotation	arm_flex_r	arm_add_r	arm_rot_r	elbow_flex_r	pro_sup_r	arm_flex_l	arm_add_l	arm_rot_l	elbow_flex_l	pro_sup_l
      0.00000000	      3.72849016	     -5.55099782	     -2.19576651	      0.51875559	      1.00363060	     -0.01742996	     -0.93242806	      7.06435183	     -3.29397070	      4.42524709	      0.07723513	      3.88413028	     -8.23159425	     -6.08239651	     -2.36508086	     -5.10786449	     -3.94202871	      5.25616810	      0.09173744	     10.01561323	     -5.40184984	     -6.08239651	     -6.34255986	      7.55227826	     -2.34219732	      5.55731218	     -6.20428414	     21.44531314	     21.09240637	     73.28125409	     -0.28105768	     -5.97467418	     17.64481171	     24.48397294	     67.13179300
      0.01666670	      0.16067413	     -4.18978106	     -2.03269035	      0.52155669	      0.99526821	     -0.01817517	      2.72964500	      5.70237204	     -3.95107383	      3.92663111	      0.06853264	      6.61726477	     -3.60515524	     -6.17200677	      1.30103519	     -3.63545303	     -5.36449724	      4.33407620	      0.07564390	     10.84132904	     -2.53971721	     -6.17200677	     -0.50739076	      6.01237757	     -2.24325282	      3.81916892	     -5.47471514	     19.27434396	     20.35341014	     72.17163366	     -0.44088468	     -5.43443750	     17.03808198	     23.26242909	     67.06623169
      0.03333330	     -0.97847108	     -3.23114817	     -2.37327344	      0.52310621	      0.99436089	     -0.01776578	      3.34504928	      4.84640854	     -4.84245768	      2.72418824	      0.04754605	      7.50974385	     -1.88967432	     -6.79240481	      2.52299514	     -2.67638888	     -7.14331110	      4.08948849	      0.07137504	     10.69976098	     -0.01120392	     -6.79240481	      1.56076548	      4.76805601	     -1.12430251	      2.03689577	     -4.71045178	     11.33908567	     22.05742677	     80.23328942	     -0.13905224	     -5.58972486	     16.92336657	     22.29162860	     73.03429181
      0.05000000	     -1.03353494	     -2.78368094	     -2.35979609	      0.52249142	      0.99462951	     -0.01758599	      2.96928466	      4.49813847	     -5.03713918	      1.88000861	      0.03281234	      8.19756808	     -0.84143531	     -6.85210187	      2.29100994	     -2.16242256	     -7.83899705	      3.38768086	      0.05912618	     10.29027571	      1.35026858	     -6.85210187	      1.92551963	      4.13016617	     -0.91808699	      1.64546507	     -4.41797066	     10.29546881	     22.43909425	     79.29640077	     -0.27419689	     -5.78503209	     16.66385448	     22.30574980	     72.38997851
      0.06666670	     -1.01143418	     -2.54389041	     -2.24743296	      0.52532549	      0.99403197	     -0.01963255	      2.56463618	      4.29204954	     -4.97206583	      1.35920025	      0.02372252	      8.62931401	     -0.31728125	     -6.99212652	      2.02316192	     -1.82542799	     -7.92003353	      3.04095604	      0.05307470	     10.01604190	      2.11884640	     -6.99212652	      2.12442185	      3.89205384	     -0.69807956	      1.27365272	     -4.34448319	      9.97594739	     22.77920972	     77.32399933	     -0.21913251	     -5.75430171	     16.85864819	     22.03292122	     70.75721205
      0.08333330	     -0.78098423	     -2.44082523	     -2.16158756	      0.52627424	      0.99322480	     -0.01922932	      2.04023946	      4.21292627	     -4.51365588	      1.08892335	      0.01900530	      8.84877138	     -0.41515371	     -7.11685475	      1.61617940	     -1.65560872	     -7.94238322	      2.88141069	      0.05029010	      9.99644569	      2.72779394	     -7.11685475	      1.98335723	      3.80948189	     -0.45232462	      1.12976526	     -4.41588122	     10.53308703	     23.01200338	     75.47383036	     -0.00118654	     -5.68447424	     17.19947050	     21.91621686	     68.94631780
      0.10000000	     -0.49123540	     -2.43552033	     -2.06142655	      0.52296120	      0.99334920	     -0.01753695	      1.63710386	      4.21954850	     -4.49619474	      0.93740801	      0.01636086	      8.95941507	     -0.22579190	     -7.12559422	      1.25855759	     -1.63793118	     -7.78275774	      2.67632526	      0.04671069	      9.87434988	      2.96702147	     -7.12559422	      1.57031801	      3.80432188	     -0.14761400	      1.25431734	     -4.46582242	     11.09524979	     23.11748558	     75.72743324	      0.43324454	     -5.64399713	     17.36304766	     22.03884629	     68.75004734
      0.11666670	     -0.28375216	     -2.42778261	     -1.87209909	      0.52279345	      0.99306199	     -0.01787342	      1.35305285	      4.20687566	     -4.53889860	      0.84594395	      0.01476451	      8.90408332	     -0.19851585	     -7.27043494	      1.06947131	     -1.64118129	     -7.64725848	      2.58509367	      0.04511840	      9.82437331	      3.36353553	     -7.27043494	      1.33441236	      3.76751056	     -0.20127858	      1.65245705	     -4.67591633	     13.52948907	     22.86630579	     73.60897420	      0.91919566	     -5.69007763	     18.34505466	     21.78601945	     66.15351707
      0.13333330	     -0.00889481	     -2.47418445	     -1.77354503	      0.52146936	      0.99543579	     -0.01768417	      1.04746970	      4.22290715	     -4.38000914	      0.75338023	      0.01314897	      8.56039017	     -0.30219177	     -7.35375777	      0.80200581	     -1.71820362	     -7.51670959	      2.45080255	      0.04277457	      9.41984105	      3.36862294	     -7.35375777	      0.88069731	      3.79802086	     -0.12062902	      2.00263293	     -4.91819380	     15.53296686	     22.78684815	     72.46186109	      1.34667771	     -5.78688685	     19.38675106	     22.00351227	     64.17178778
      0.15000000	      0.26218628	     -2.52804418	     -1.62598116	      0.52240522	      0.99477909	     -0.01690174	      0.73012817	      4.27349569	     -4.47186653	      0.70263138	      0.01226323	      8.45602416	     -0.19258353	     -7.40997460	      0.51846717	     -1.82265739	     -7.47264944	      2.39914261	      0.04187294	      9.27595299	      3.57841787	     -7.40997460	      0.51438154	      3.81445399	     -0.13681248	      2.24550883	     -4.97050789	     16.43950999	     22.59279040	     71.12563320	      1.71921098	     -5.80610528	     19.76397587	     21.91070083	     62.87107603
      0.16666670	      0.56176902	     -2.56280691	     -1.51410846	      0.52249425	      0.99501431	     -0.01772059	      0.37130949	      4.30690223	     -4.51868469	      0.66766726	      0.01165299	      8.29987623	     -0.25545964	     -7.46950808	      0.16921035	     -1.87471519	     -7.37420794	      2.32405836	      0.04056247	      9.08355522	      3.70411963	     -7.46950808	      0.08841421	      3.82018312	     -0.22230606	      2.50034307	     -5.19981761	     17.98990631	     22.53312311	     71.17776963	      1.93716754	     -6.02537004	     20.98371257	     22.21585601	     61.49340186
      0.18333330	      0.85106766	     -2.59761455	     -1.45117701	      0.52346540	      0.99639383	     -0.01862607	      0.03259583	      4.32379031	     -4.52378683	      0.64996589	      0.01134404	      8.18590546	     -0.27995894	     -7.48782290	     -0.17461348	     -1.92713189	     -7.37539365	      2.29686108	      0.04008779	      9.03827805	      3.98618431	     -7.48782290	     -0.26505695	      3.83733666	     -0.20535699	      2.58896332	     -5.39390845	     18.83043108	     22.57447015	     70.56350957	      2.15522438	     -6.02373677	     21.33353807	     22.13826650	     60.84244195
      0.20000000	      1.08207923	     -2.64920630	     -1.45528380	      0.52214507	      0.99738435	     -0.01818223	     -0.21222101	      4.36311191	     -4.54022863	      0.61717609	      0.01077175	      8.04461159	     -0.19807220	     -7.49504542	     -0.46367598	     -1.98810268	     -7.46303842	      2.18440144	      0.03812500	      8.85280177	      4.16246359	     -7.49504542	     -0.60296622	      3.87629823	     -0.15254643	      2.71550968	     -5.55722887	     19.30931685	     22.59219995	     70.93508978	      2.30901281	     -6.09021304	     21.70644553	     22.28247532	     60.63907803
